<svg width="12" height="11" viewBox="0 0 12 11" fill="none" xmlns="http://www.w3.org/2000/svg">
<path d="M6 10.8833C4.39737 10.8833 2.89059 10.3173 1.75735 9.28948C0.624115 8.2617 0 6.89514 0 5.44165C0 3.98816 0.624115 2.6216 1.75735 1.59382C2.89059 0.566036 4.39737 0 6 0C7.60263 0 9.10941 0.566036 10.2426 1.59382C11.3759 2.6216 12 3.98816 12 5.44165C12 6.89514 11.3759 8.2617 10.2426 9.28948C9.10941 10.3173 7.60263 10.8833 6 10.8833ZM6 0.850258C3.20856 0.850258 0.9375 2.90997 0.9375 5.44165C0.9375 7.97333 3.20856 10.033 6 10.033C8.79144 10.033 11.0625 7.97333 11.0625 5.44165C11.0625 2.90997 8.79144 0.850258 6 0.850258ZM8.46936 7.68122L7.80643 7.07997C6.81033 7.98337 5.18967 7.98337 4.19357 7.07997C3.19748 6.17658 3.19748 4.70673 4.19357 3.80333C5.18967 2.89993 6.81033 2.89993 7.80643 3.80333L8.46936 3.20208C7.1077 1.96722 4.89221 1.96722 3.53064 3.20208C2.16907 4.43703 2.16907 6.44635 3.53064 7.68122C4.21143 8.29865 5.10571 8.60737 6 8.60737C6.8942 8.60737 7.78857 8.29865 8.46936 7.68122Z" fill="white"/>
</svg>
